<!-- icon666.com - MILLIONS vector ICONS FREE --><svg version="1.1" id="Capa_1" xmlns="http://www.w3.org/2000/svg" xmlns:xlink="http://www.w3.org/1999/xlink" x="0px" y="0px" viewBox="0 0 512 512" style="enable-background:new 0 0 512 512;" xml:space="preserve"><path style="fill: rgb(39, 109, 76);" d="M414.897,44.138h-61.793H158.897H97.103c-19.5,0-35.31,15.81-35.31,35.31V476.69 c0,19.5,15.81,35.31,35.31,35.31h317.793c19.5,0,35.31-15.81,35.31-35.31V79.448C450.207,59.948,434.397,44.138,414.897,44.138z" fill="#6C4127"></path><path style="" d="M308.18,26.483c-9.454,0-18.291-4.537-23.896-12.147C277.884,5.65,267.626,0,256,0 c-11.626,0-21.884,5.65-28.284,14.336c-5.606,7.609-14.442,12.147-23.896,12.147h-22.59c-12.332,0-22.334,10.002-22.334,22.334 v48.287h194.207V48.817c0-12.332-10.002-22.334-22.334-22.334H308.18z" fill="#AFB6BB"></path><path style="" d="M397.241,79.448h-44.138v17.655H256h-97.103V79.448h-44.138c-9.754,0-17.655,7.901-17.655,17.655 v361.931c0,9.754,7.901,17.655,17.655,17.655h282.483c9.754,0,17.655-7.901,17.655-17.655V97.103 C414.897,87.349,406.996,79.448,397.241,79.448z" fill="#E7ECED"></path><path style="" d="M264.872,70.621h-17.743c-4.846,0-8.783-3.937-8.783-8.783V44.094c0-4.846,3.937-8.783,8.783-8.783 h17.743c4.846,0,8.783,3.937,8.783,8.783v17.743C273.655,66.684,269.718,70.621,264.872,70.621z" fill="#FFFFFF"></path><circle style="fill: rgb(0, 0, 0);" cx="185.379" cy="158.897" r="26.483" fill="#1F436D"></circle><path style="fill: rgb(54, 155, 181);" d="M211.889,220.716H158.87c-14.61,0-26.456,11.847-26.456,26.456v52.966h105.931v-52.966 C238.345,232.563,226.498,220.716,211.889,220.716z" fill="#366DB6"></path><rect x="176.552" y="256" style="fill: rgb(0, 0, 0);" width="17.655" height="44.138" fill="#1F436D"></rect><path style="" d="M326.356,450.207H132.414c-4.873,0-8.828-3.955-8.828-8.828s3.955-8.828,8.828-8.828h193.942 c4.873,0,8.828,3.955,8.828,8.828S331.229,450.207,326.356,450.207z" fill="#556080"></path><path style="" d="M379.586,450.207h-17.655c-4.873,0-8.828-3.955-8.828-8.828s3.955-8.828,8.828-8.828h17.655 c4.873,0,8.828,3.955,8.828,8.828S384.459,450.207,379.586,450.207z" fill="#EA6248"></path><path style="fill: rgb(46, 30, 25);" d="M326.356,379.586H132.414c-4.873,0-8.828-3.955-8.828-8.828c0-4.873,3.955-8.828,8.828-8.828h193.942 c4.873,0,8.828,3.955,8.828,8.828C335.183,375.631,331.229,379.586,326.356,379.586z" fill="#C5411E"></path><path style="" d="M379.586,379.586h-17.655c-4.873,0-8.828-3.955-8.828-8.828c0-4.873,3.955-8.828,8.828-8.828h17.655 c4.873,0,8.828,3.955,8.828,8.828C388.414,375.631,384.459,379.586,379.586,379.586z" fill="#F76363"></path><path style="" d="M379.586,414.897h-70.621c-4.873,0-8.828-3.955-8.828-8.828s3.955-8.828,8.828-8.828h70.621 c4.873,0,8.828,3.955,8.828,8.828S384.459,414.897,379.586,414.897z" fill="#F7B563"></path><path style="fill: rgb(54, 155, 181);" d="M158.897,414.897h-26.483c-4.873,0-8.828-3.955-8.828-8.828s3.955-8.828,8.828-8.828h26.483 c4.873,0,8.828,3.955,8.828,8.828S163.769,414.897,158.897,414.897z" fill="#366DB6"></path><path style="fill: rgb(21, 203, 24);" d="M273.655,414.897h-79.448c-4.873,0-8.828-3.955-8.828-8.828s3.955-8.828,8.828-8.828h79.448 c4.873,0,8.828,3.955,8.828,8.828S278.528,414.897,273.655,414.897z" fill="#BE6E41"></path><path style="" d="M379.586,344.276h-70.621c-4.873,0-8.828-3.955-8.828-8.828s3.955-8.828,8.828-8.828h70.621 c4.873,0,8.828,3.955,8.828,8.828S384.459,344.276,379.586,344.276z" fill="#7383BF"></path><path style="" d="M158.897,344.276h-26.483c-4.873,0-8.828-3.955-8.828-8.828s3.955-8.828,8.828-8.828h26.483 c4.873,0,8.828,3.955,8.828,8.828S163.769,344.276,158.897,344.276z" fill="#EBBA16"></path><path style="" d="M273.655,344.276h-79.448c-4.873,0-8.828-3.955-8.828-8.828s3.955-8.828,8.828-8.828h79.448 c4.873,0,8.828,3.955,8.828,8.828S278.528,344.276,273.655,344.276z" fill="#25AE88"></path><rect x="273.655" y="141.241" style="" width="105.931" height="158.897" fill="#DD352E"></rect><g><path style="" d="M344.276,185.379h-35.31c-4.873,0-8.828-3.955-8.828-8.828c0-4.873,3.955-8.828,8.828-8.828h35.31 c4.873,0,8.828,3.955,8.828,8.828C353.103,181.425,349.149,185.379,344.276,185.379z" fill="#FFFFFF"></path><path style="" d="M344.276,273.655h-35.31c-4.873,0-8.828-3.955-8.828-8.828s3.955-8.828,8.828-8.828h35.31 c4.873,0,8.828,3.955,8.828,8.828S349.149,273.655,344.276,273.655z" fill="#FFFFFF"></path><path style="" d="M344.276,229.517h-35.31c-4.873,0-8.828-3.955-8.828-8.828c0-4.873,3.955-8.828,8.828-8.828h35.31 c4.873,0,8.828,3.955,8.828,8.828C353.103,225.562,349.149,229.517,344.276,229.517z" fill="#FFFFFF"></path></g></svg>